<svg xmlns="http://www.w3.org/2000/svg" width="200" height="200" viewBox="0 0 200 200" fill="none">
  <path d="M120 60C126.627 60 132 54.6274 132 48C132 41.3726 126.627 36 120 36C113.373 36 108 41.3726 108 48C108 54.6274 113.373 60 120 60Z" fill="#909399"/>
  <path d="M80 140C86.6274 140 92 134.627 92 128C92 121.373 86.6274 116 80 116C73.3726 116 68 121.373 68 128C68 134.627 73.3726 140 80 140Z" fill="#909399"/>
  <path d="M120 116C126.627 116 132 110.627 132 104C132 97.3726 126.627 92 120 92C113.373 92 108 97.3726 108 104C108 110.627 113.373 116 120 116Z" fill="#909399"/>
  <path d="M80 84C86.6274 84 92 78.6274 92 72C92 65.3726 86.6274 60 80 60C73.3726 60 68 65.3726 68 72C68 78.6274 73.3726 84 80 84Z" fill="#909399"/>
  <path d="M108 48L68 72" stroke="#909399" stroke-width="4"/>
  <path d="M108 104L68 128" stroke="#909399" stroke-width="4"/>
  <path d="M92 72L108 92" stroke="#909399" stroke-width="4"/>
</svg> 